<svg width="73" height="73" viewBox="0 0 73 73" fill="none" xmlns="http://www.w3.org/2000/svg">
<path d="M36.1712 5.0185e-05C16.259 -0.0328626 0.032963 16.1273 5.0185e-05 36.0396C-0.0328626 55.9518 16.1273 72.1778 36.0396 72.2108C55.9518 72.2437 72.1778 56.0835 72.2108 36.1712C72.2766 16.259 56.0835 0.032963 36.1712 5.0185e-05ZM36.0725 68.2283C18.3325 68.1954 4.01541 53.8125 4.01541 36.0725C4.04833 18.3325 18.4312 3.9825 36.1712 4.01541C53.9112 4.04833 68.2612 18.4312 68.2283 36.1712C68.1954 53.9112 53.7796 68.2283 36.0725 68.2283Z" fill="#83C442"/>
<path d="M47.9211 41.569C46.045 42.0627 44.926 41.0753 45.2222 39.6272C45.4526 37.9486 46.045 36.3688 46.3742 34.1637C47.4603 27.3836 48.4477 19.9782 41.3385 16.2262C39.627 15.3375 36.5661 15.535 34.5255 16.8515C31.5634 18.4642 28.9962 20.8669 28.9633 20.8998C28.2063 21.4593 27.7126 22.1834 27.4822 22.9075C27.2518 23.5328 26.6265 26.2975 26.7581 26.7583C26.8569 27.252 27.4493 28.0748 28.8975 27.5811C31.2672 26.7912 32.6166 24.2569 37.0927 22.4138C37.5535 22.2163 38.6067 22.2821 39.0017 23.0391C40.3182 24.9481 39.6599 28.9305 39.5283 29.3584C39.3966 29.7863 38.9359 30.9711 36.3357 31.9585C27.1531 35.5789 22.5124 41.7665 22.1503 42.2931L22.1174 42.326C20.1756 44.7945 20.7351 47.1971 21.5579 48.744C21.9529 49.501 23.1048 51.7062 26.6265 53.0556C27.8772 53.4835 31.3659 54.1417 35.7104 53.0227C37.7839 52.5948 42.4575 49.9289 46.5387 48.744C48.5135 47.9212 50.6199 47.3617 51.7719 46.868C53.2858 46.3085 52.7263 45.3211 52.4301 44.7945C52.0681 44.1362 51.0478 42.9843 50.2579 42.1944C49.8629 41.7665 48.9084 41.3057 47.9211 41.569ZM37.9485 40.3184C37.6194 42.1286 37.6193 43.8071 35.7104 44.7945C34.6901 45.2224 32.6824 46.3414 30.7735 46.1768C26.6923 45.4198 29.819 42.7868 31.1355 41.4374C32.4191 40.2854 35.7433 37.6853 37.4548 37.5866C38.5409 37.5537 38.113 38.936 37.9485 40.3184Z" fill="#83C442"/>
</svg>
